<?xml version="1.0" standalone="no"?>
<!DOCTYPE svg PUBLIC "-//W3C//DTD SVG 20010904//EN"
 "http://www.w3.org/TR/2001/REC-SVG-20010904/DTD/svg10.dtd">
<svg version="1.0" xmlns="http://www.w3.org/2000/svg"
 width="261.000000pt" height="261.000000pt" viewBox="0 0 261.000000 261.000000"
 preserveAspectRatio="xMidYMid meet">
<metadata>
Created by potrace 1.11, written by Peter Selinger 2001-2013
</metadata>
<g transform="translate(0.000000,261.000000) scale(0.100000,-0.100000)"
fill="#000000" stroke="none">
<path d="M1088 2144 c-2 -2 -18 -5 -36 -9 -89 -15 -201 -82 -272 -162 -44 -49
-80 -99 -80 -112 0 -5 -3 -11 -7 -13 -12 -5 -110 -218 -115 -248 -1 -6 -2 -12
-18 -61 -12 -41 -15 -53 -30 -124 -6 -27 -14 -57 -17 -65 -3 -8 -7 -22 -8 -30
-1 -8 -5 -28 -9 -45 -3 -16 -9 -45 -12 -64 -3 -18 -8 -42 -10 -52 -8 -38 -14
-66 -25 -129 -27 -155 -72 -268 -137 -348 -70 -88 -140 -140 -240 -183 -83
-35 -67 -40 108 -34 142 6 185 9 210 17 8 3 42 13 75 23 149 43 248 120 319
248 30 54 61 132 58 147 0 3 3 10 8 15 6 8 26 90 34 140 1 6 5 16 9 23 5 6 6
12 4 12 -3 0 2 28 9 63 8 34 17 77 19 94 3 18 11 59 19 92 8 33 11 62 8 65 -3
3 0 6 7 6 7 0 10 4 7 9 -3 4 -1 23 5 42 6 19 12 43 14 55 19 91 131 373 156
394 3 3 12 16 19 29 15 29 18 33 67 90 21 23 57 58 80 76 l43 33 -28 5 c-28 6
-229 7 -234 1z"/>
<path d="M1645 2142 c-226 -40 -358 -141 -454 -346 -34 -73 -97 -241 -107
-288 -10 -44 -13 -54 -22 -79 -6 -15 -8 -29 -5 -32 3 -3 1 -12 -3 -19 -5 -7
-10 -20 -11 -29 -9 -60 -76 -358 -93 -419 -12 -41 -24 -84 -27 -95 -2 -11 -7
-27 -11 -35 -3 -8 -6 -17 -7 -20 -24 -76 -102 -197 -169 -262 l-41 -38 50 6
c28 3 58 7 67 10 9 3 26 7 39 9 115 22 264 132 315 233 11 21 21 39 24 42 6 6
40 97 45 120 2 8 4 15 5 15 1 0 3 8 6 18 2 9 5 23 7 30 2 6 10 39 17 72 8 33
15 63 16 68 1 4 2 18 3 32 0 14 5 25 11 25 5 0 7 -17 4 -37 -3 -21 -7 -60 -9
-88 -12 -145 -53 -289 -100 -351 -29 -39 -31 -48 -7 -37 9 5 31 8 47 7 17 -2
44 2 60 7 17 5 35 9 40 10 6 0 41 17 78 36 108 57 238 199 311 341 23 45 27
40 11 -15 -7 -27 -16 -63 -19 -81 -2 -18 -10 -40 -16 -48 -7 -7 -10 -14 -6
-14 3 0 1 -12 -5 -27 -6 -16 -13 -37 -15 -48 -2 -10 -24 -60 -49 -110 -49 -98
-106 -171 -169 -217 l-41 -29 77 2 c145 4 316 51 375 103 7 6 30 25 51 41 22
17 57 57 78 89 42 65 85 161 76 170 -3 3 1 6 8 6 7 0 11 2 8 6 -3 3 1 26 8 52
8 26 17 61 20 77 3 17 9 46 14 65 8 34 26 122 35 174 6 33 12 64 20 96 3 14 7
36 10 50 6 35 61 219 76 256 7 16 13 34 15 39 29 117 80 235 133 305 48 64 66
82 124 117 31 20 57 38 57 41 0 9 -296 -7 -325 -18 -16 -6 -31 -11 -32 -11
-15 3 -63 -14 -63 -22 0 -6 -3 -8 -6 -4 -3 3 -24 -5 -45 -19 -21 -13 -41 -24
-44 -24 -18 0 -152 -133 -195 -195 -19 -27 -38 -51 -42 -53 -5 -2 -8 -9 -8
-16 0 -7 -9 -23 -20 -36 -11 -13 -20 -27 -20 -32 0 -4 -12 -27 -27 -51 -14
-23 -26 -43 -25 -44 1 -2 -14 -35 -32 -75 -60 -130 -76 -167 -76 -172 0 -2
-13 -34 -30 -69 -16 -36 -30 -72 -30 -81 0 -9 -5 -16 -11 -16 -5 0 -7 -4 -4
-10 3 -5 1 -10 -5 -10 -6 0 -9 -4 -6 -9 3 -4 -1 -16 -8 -26 -11 -16 -12 -9 -5
41 4 32 10 102 14 154 11 161 14 196 19 236 3 22 8 57 11 79 14 119 73 277
125 339 44 51 100 101 100 88 0 -4 4 -2 8 3 4 6 23 18 42 28 27 13 30 17 15
18 -42 4 -211 5 -230 1z"/>
</g>
</svg>
