<?xml version="1.0" standalone="no"?>
<!DOCTYPE svg PUBLIC "-//W3C//DTD SVG 20010904//EN"
 "http://www.w3.org/TR/2001/REC-SVG-20010904/DTD/svg10.dtd">
<svg version="1.0" xmlns="http://www.w3.org/2000/svg"
 width="340.000000pt" height="340.000000pt" viewBox="0 0 340.000000 340.000000"
 preserveAspectRatio="xMidYMid meet">
<metadata>
Created by potrace 1.11, written by Peter Selinger 2001-2013
</metadata>
<g transform="translate(0.000000,340.000000) scale(0.100000,-0.100000)"
fill="#000000" stroke="none">
<path d="M1549 2966 c-2 -2 -35 -6 -74 -10 -262 -25 -564 -133 -784 -281 -94
-63 -116 -80 -196 -153 -105 -97 -212 -242 -270 -367 -15 -33 -31 -67 -35 -75
-14 -30 -42 -135 -55 -210 -19 -105 -12 -303 14 -405 35 -139 113 -305 192
-406 l28 -36 -67 -16 c-37 -9 -92 -19 -122 -23 -30 -4 -63 -11 -72 -16 -44
-22 -11 -28 155 -28 l173 0 42 -41 c23 -23 39 -46 35 -52 -4 -6 -1 -7 6 -2 7
4 22 -1 34 -13 53 -48 231 -160 332 -208 170 -82 371 -142 565 -169 76 -11
391 -13 460 -4 132 18 180 26 233 40 20 5 54 13 75 19 21 5 79 23 128 41 380
134 701 410 839 723 38 86 73 204 84 281 12 85 7 282 -8 350 -30 133 -95 293
-153 377 -10 14 -18 30 -18 35 0 4 5 1 10 -7 7 -11 10 -12 10 -2 0 8 -9 16
-20 19 -11 3 -20 10 -20 17 0 17 36 37 150 83 l105 43 -182 -1 -182 -1 -56 53
c-170 162 -405 295 -653 368 -90 27 -146 39 -302 66 -39 7 -395 17 -401 11z"/>
<path d="M3117 2353 c-10 -9 -9 -23 1 -23 5 0 9 7 9 15 0 17 -1 18 -10 8z"/>
<path d="M3135 2319 c-4 -6 -4 -13 -1 -16 3 -4 6 -1 6 6 0 7 5 9 12 5 7 -4 8
-3 4 4 -9 15 -13 15 -21 1z"/>
<path d="M3215 2321 c-3 -5 -2 -12 3 -15 5 -3 9 1 9 9 0 17 -3 19 -12 6z"/>
<path d="M3156 2282 c-3 -5 1 -9 9 -9 8 0 12 4 9 9 -3 4 -7 8 -9 8 -2 0 -6 -4
-9 -8z"/>
<path d="M410 910 c16 -29 37 -42 43 -27 3 8 1 20 -5 28 -8 11 -9 10 -4 -3 3
-10 1 -18 -4 -18 -9 0 -14 13 -12 31 1 3 -5 6 -13 6 -10 0 -11 -5 -5 -17z"/>
<path d="M393 892 c0 -12 5 -22 9 -22 11 0 10 12 -2 30 -7 12 -9 10 -7 -8z"/>
<path d="M350 890 c8 -5 20 -10 25 -10 6 0 3 5 -5 10 -8 5 -19 10 -25 10 -5 0
-3 -5 5 -10z"/>
<path d="M281 876 c-9 -11 -9 -16 0 -22 7 -4 9 -3 5 4 -3 6 2 15 11 21 10 6
13 11 7 11 -6 0 -17 -6 -23 -14z"/>
<path d="M375 861 c6 -11 4 -13 -8 -8 -10 4 -14 2 -11 -7 6 -17 32 -16 30 0
-1 8 -6 17 -11 21 -4 5 -5 2 0 -6z"/>
<path d="M414 859 c-3 -6 -1 -16 5 -22 9 -9 10 -7 5 7 -6 15 -4 17 6 11 9 -5
11 -4 6 3 -9 15 -13 15 -22 1z"/>
<path d="M456 861 c-3 -5 2 -15 12 -22 16 -13 16 -13 2 5 -14 18 -13 19 3 13
9 -3 17 -2 17 3 0 12 -27 13 -34 1z"/>
<path d="M216 838 c3 -5 10 -6 15 -3 13 9 11 12 -6 12 -8 0 -12 -4 -9 -9z"/>
<path d="M275 821 c-3 -5 -2 -12 3 -15 5 -3 9 1 9 9 0 17 -3 19 -12 6z"/>
</g>
</svg>
